<svg id="Layer_1" data-name="Layer 1" xmlns="http://www.w3.org/2000/svg" viewBox="0 0 371.06 378"><defs><style>.cls-1{fill:#fff;}</style></defs><title>monogram</title><path class="cls-1" d="M294.6,216.23c54,0,98-44.86,98-100s-44-100-98-100H198V191.92L41.34,35.28a14,14,0,0,0-19.8,0h0L194.21,208,31.44,370.72a14,14,0,0,0,0,19.8h0L198,224V380.23a14,14,0,0,0,14,14h0V225.72L369.47,383.21a14,14,0,0,0,19.7.1h0L221.88,216.23H294.6Zm0-186c46.47,0,84.28,38.58,84.28,86s-37.81,86-84.28,86H212v-172H294.6Z" transform="translate(-21.54 -16.23)"/></svg>