<?xml version="1.0" encoding="utf-8"?>
<!-- Generator: Adobe Illustrator 19.1.0, SVG Export Plug-In . SVG Version: 6.00 Build 0)  -->
<svg version="1.1" id="Layer_1" xmlns="http://www.w3.org/2000/svg" xmlns:xlink="http://www.w3.org/1999/xlink" x="0px" y="0px"
	 viewBox="0 0 688 408.5" style="enable-background:new 0 0 688 408.5;" xml:space="preserve">
<style type="text/css">
	.st0{fill:#FFFFFF;stroke:#000000;stroke-miterlimit:10;}
	.st1{font-family:'AcuminProWide-Regular';}
	.st2{font-size:53px;}
</style>
<g>
	<path class="st0" d="M114.9,164.5"/>
	<path d="M266,198.5c-6.4-12-24.6-1.3-18.2,10.6c4.4,8.2,8.7,16.4,13.1,24.6c2.9,5.4,5.7,10.5,3.5,16.6c-2.9,8.2-13.6,11.8-20.6,6.8
		c-0.1-0.1-0.1-0.2-0.2-0.2c-0.7-1.4-1.2-3-1.4-4.6c0.1-4.9,0-9.7-0.3-14.6c-0.3-5.5-4.6-10.8-10.6-10.5
		c-5.4,0.2-10.9,4.6-10.6,10.5c0.2,4.3,0.3,8.7,0.3,13c0,0.1,0,0.2,0,0.2c0,0.7,0,1.3,0,2c-0.6,3.7-1.7,7.4-3.3,10.9
		c-6.4,7.5-18,11.5-24.4,1.3c-4.1-6.6-1.3-17.5-0.2-24.6c1.7-10.9,4.4-21.5,7.8-32c4.2-12.9-16.2-18.5-20.4-5.6
		c-4.8,14.8-7.9,29.9-9.6,45.3c-1.4,13.4,0.4,26.9,11.5,35.8c17.8,14.4,40.3,7.7,52.7-8.4c14.8,7.9,33.7,5.4,44.7-9.9
		C296,243.4,276.8,218.7,266,198.5z"/>
	<path d="M337,238.4c-7.2,1.4-14.2,3.4-21,6c-0.9-4.9-1.3-10.2-0.2-14.8c1-4,7-6.2,10.4-8.4c7.2-4.7,2.7-18.3-6.2-14.7
		c-0.7,0.3-1.3,0.5-1.9,0.8c0,0,0,0,0,0c0,0-0.1,0-0.1,0.1c-1.7,0.7-3.3,1.5-4.8,2.4c0-3.2,0.8-6.5,0.9-9.7c0.5-0.8,0.9-1.8,1-2.8
		c0.2-0.2,0.4-0.4,0.5-0.6c1.2-0.5,2.4-1.6,3.4-2.2c0.7-0.4,1.4-0.8,2.1-1.1c2.1-0.7,4.2-1.5,6.2-2.5c0.1,0,0.2,0,0.3-0.1
		c5.2-0.8,8.1-7.3,6.8-11.9c-1.5-5.5-6.7-7.6-11.9-6.7c-6.4,1-12.5,3.9-17.5,8.1c-0.6,0.3-1.2,0.7-1.8,1.1c-4,1.6-6.5,5.4-7.9,10.1
		c-0.4,0.9-0.6,1.9-0.7,3c-0.9,4.3-1.1,9.1-1.1,13.5c-0.3,4.7-0.4,9.5-0.6,14.2c0,0.4-0.1,0.9-0.1,1.3c0,0.2-0.1,0.3-0.1,0.5
		c0,0.2,0,0.3,0,0.4c-0.1,4.7,0,9.3,0.4,14c0.7,10.3,0.9,34.3,18,28.5c0.8-0.3,1.5-0.6,2.2-1c1.1-0.2,2.2-0.5,3.2-1
		c8.2-3.7,16.8-6.2,25.6-7.9C354.4,254.7,349.3,236.1,337,238.4z"/>
	<path d="M391.7,223.6c-7.2,1.4-14.2,3.4-21,6c-0.9-4.9-1.3-10.2-0.2-14.8c1-4,7-6.2,10.4-8.4c7.2-4.7,2.7-18.3-6.2-14.7
		c-0.7,0.3-1.3,0.5-1.9,0.8c0,0,0,0,0,0c0,0-0.1,0-0.1,0.1c-1.7,0.7-3.3,1.5-4.8,2.4c0-3.2,0.8-6.5,0.9-9.7c0.5-0.8,0.9-1.8,1-2.8
		c0.2-0.2,0.4-0.4,0.5-0.6c1.2-0.5,2.4-1.6,3.4-2.2c0.7-0.4,1.4-0.8,2.1-1.1c2.1-0.7,4.2-1.5,6.2-2.5c0.1,0,0.2,0,0.3-0.1
		c5.2-0.8,8.1-7.3,6.8-11.9c-1.5-5.5-6.7-7.6-11.9-6.7c-6.4,1-12.5,3.9-17.5,8.1c-0.6,0.3-1.2,0.7-1.8,1.1c-4,1.6-6.5,5.4-7.9,10.1
		c-0.4,0.9-0.6,1.9-0.7,3c-0.9,4.3-1.1,9.1-1.1,13.5c-0.3,4.7-0.4,9.5-0.6,14.2c0,0.4-0.1,0.9-0.1,1.3c0,0.2-0.1,0.3-0.1,0.5
		c0,0.2,0,0.3,0,0.4c-0.1,4.7,0,9.3,0.4,14c0.7,10.3,0.9,34.3,18,28.5c0.8-0.3,1.5-0.6,2.2-1c1.1-0.2,2.2-0.5,3.2-1
		c8.2-3.7,16.8-6.2,25.6-7.9C409.1,239.9,403.9,221.3,391.7,223.6z"/>
	<path d="M437.2,166.4c1.9-0.5,3.8-1.1,5.7-1.6c0.5-0.2,3-0.7,4.5-1.3c0.7-0.1,1.5-0.2,2.2-0.4c6.4,0.8,13.6-4.1,11.1-12
		c-3-9.5-10.9-8.8-18.4-6.7c2.5-9.8,5.3-19.5,7.4-29.4c2.7-12.3-16.4-17.6-19.1-5.2c-3,13.6-6.9,27-10.1,40.6
		c-0.2,0.1-0.5,0.1-0.7,0.2c-2.5,0.6-4.9,1.1-7.4,1.7c-1.4,0.3-2.8,0.6-4.3,0.9c0,0-0.1,0-0.1,0c-1.3-0.7-2.9-1.2-4.6-1.2
		c-4.8,0-10.6,4.5-9.9,9.8c1.7,13.2,13,11.7,22.9,9.7c-1.1,7.6-1.8,15.3-1.7,23c0.2,12.2,1.4,27.4,8.9,37.6
		c7.8,10.6,24.3,12.2,31.6,0.1c6.1-10.1-8.3-19.3-15.6-11.9c-0.5-0.7-1.2-1.6-1.3-1.9c-1.8-4-2.6-9-3.2-13.3
		c-1.3-9.7-0.8-19.8,0.5-29.5C436.1,172.6,436.6,169.5,437.2,166.4z"/>
	<path d="M155.2,219.3c-13.1-23-35.9-35.9-60.9-42.4c-2.5-0.6-5-1.3-7.4-2.1c-0.5-0.8-0.9-1.7-1.3-2.5c0-0.6,0-1.3,0-1.8
		c0.4-4.6,2.4-9.2,5.5-12.6c7.7-8.8,20.2-8.4,29.3-2.1c5.8,4,14.5,1.1,17.8-4.7c3.8-6.5,1.1-13.8-4.7-17.8
		c-21.9-15.1-52.6-8.5-66.7,13.8c-6.4,10.1-9.3,23.8-6,35.4C65,197.9,82,200.1,95.1,204c20.2,5.9,37.9,21,42.8,41.9
		c4.7,19.8-4,42-23.9,49.5c-19.5,7.3-42.7-5.3-42.9-26.9c-0.1-16.7-26.2-16.8-26.1,0c0.2,24.8,18.3,47.4,42.4,53.6
		c24.9,6.3,51.2-5.5,65.8-25.8C169.2,274,168.5,242.5,155.2,219.3z"/>
	<path d="M567.4,192.8c-0.1-0.1-0.2-0.3-0.3-0.4c-1.2-1.5-2.7-2.4-4.4-2.9c-35.3-36.4-32-92.6-29-140c0.2-3.4-0.8-6-2.5-7.9
		c-1.6-2.5-4.1-4.5-6.7-5.2c-6.6-1.8-11.8,2.3-14.1,8.1c-22.4,56-34.1,116.1-34.7,176.5c-0.2,15,22.8,15,23,0c0.2-16,1.2-32,3-47.9
		c6.3-2.9,12.8-5.1,19.5-6.8c2.4,6.1,5.3,12,8.5,17.6c3.4,5.8,7.4,11.4,11.8,16.6c4.3,5.1,10.4,13.2,17.7,12.7
		c3.7-0.2,8.3-2,9.9-5.8c0.1-0.2,0.2-0.4,0.2-0.6C571.5,201.7,570.9,197.3,567.4,192.8z M510.4,121.7c0.8,7.5,2,15,3.8,22.5
		c-3,0.8-5.9,1.6-8.8,2.6C506.8,138.4,508.5,130,510.4,121.7z"/>
	<path d="M618.8,175.8c-2.3-22.6-24.8-15.2-41.8-13.7c0.1-0.3,0.1-0.5,0.2-0.7c0.9-2.7,2.2-5.1,3.7-7.5c0.9-1.4,7.2-9,7.8-8
		c5.6,10.6,21.7,1.2,16.1-9.4c-4.1-7.9-13.6-11-22-8.3c-8.1,2.6-14.2,10.1-18.5,17.1c-4,6.7-8.3,16.3-7.2,24.3
		c1.6,11,11.7,11.4,20.5,10.6c4.8-0.4,9.6-0.9,14.4-1.4c2.3-0.2,4.6-0.4,6.8-0.6c0.3,0.1,0.5,0.2,0.7,0.5c0.2,0.3,0.4,0.6,0.5,1
		c0,1.2,0.2,2.4,0.1,3.3c-0.2,1.5-0.7,3.1-1.1,4.6c-1.2,3.9-3.2,7.6-5.6,10.9c-2.3,3.2-4.9,6-7.8,8.4c0.1,0.1,0.2,0.2,0.3,0.3
		c-0.6,0.3-1.2,0.7-1.7,1.2c-18.9,14.9-41.7,23.7-64.5,30.7c-25.9,7.9-52.3,14.5-78.5,21.4c-54.9,14.5-109.9,28.5-164.8,43.1
		c-31.3,8.3-62.5,16.8-93.6,25.4c-11.5,3.2-6.6,21.1,5,17.9c56.4-15.6,112.9-30.7,169.6-45.4c54.8-14.2,110.1-27.4,164.4-43.7
		c27.2-8.1,53.4-18.7,75.7-36.4c0.5-0.4,1-0.9,1.4-1.5C611.2,209.2,620.5,192.8,618.8,175.8z"/>
</g>
<text transform="matrix(1 0 0 1 393.4059 341.4516)" class="st1 st2">DESIGN</text>
</svg>
